name rise49.25peak52.1432fall72.8391.mot
datacolumns 19
datarows 24
range 17.14493600000000 17.18326700000000
endheader
time	ground_force1_vx	ground_force1_vy	ground_force1_vz	ground_force1_px	ground_force1_py	ground_force1_pz	ground_force2_vx	ground_force2_vy	ground_force2_vz	ground_force2_px	ground_force2_py	ground_force2_pz	ground_torque1_x	ground_torque1_y	ground_torque1_z	ground_torque2_x	ground_torque2_y	ground_torque2_z	
17.14493600000000	17.46784100000000	713.17276800000002	40.64912200000000	0.24462100000000	0.00000000000000	0.09496700000000	0.00000000000000	0.00000000000000	0.00000000000000	0.00000000000000	0.00000000000000	0.00000000000000	0.00000000000000	17.94863100000000	0.00000000000000	0.00000000000000	0.00000000000000	0.00000000000000	
17.14660200000000	16.98389900000000	713.98383500000000	40.60295800000000	0.24378100000000	0.00000000000000	0.09487700000000	0.00000000000000	0.00000000000000	0.00000000000000	0.00000000000000	0.00000000000000	0.00000000000000	0.00000000000000	17.98394300000000	0.00000000000000	0.00000000000000	0.00000000000000	0.00000000000000	
17.14826500000000	16.48726500000000	714.79867700000000	40.56457300000000	0.24291300000000	0.00000000000000	0.09479000000000	0.00000000000000	0.00000000000000	0.00000000000000	0.00000000000000	0.00000000000000	0.00000000000000	0.00000000000000	18.02356400000000	0.00000000000000	0.00000000000000	0.00000000000000	0.00000000000000	
17.14993400000000	15.97795400000000	715.61610599999995	40.53395100000000	0.24201600000000	0.00000000000000	0.09470600000000	0.00000000000000	0.00000000000000	0.00000000000000	0.00000000000000	0.00000000000000	0.00000000000000	0.00000000000000	18.06746400000000	0.00000000000000	0.00000000000000	0.00000000000000	0.00000000000000	
17.15159700000000	15.45602100000000	716.43504199999995	40.51106000000000	0.24109000000000	0.00000000000000	0.09462500000000	0.00000000000000	0.00000000000000	0.00000000000000	0.00000000000000	0.00000000000000	0.00000000000000	0.00000000000000	18.11560600000000	0.00000000000000	0.00000000000000	0.00000000000000	0.00000000000000	
17.15327000000000	14.92155900000000	717.25451599999997	40.49585200000000	0.24013600000000	0.00000000000000	0.09454700000000	0.00000000000000	0.00000000000000	0.00000000000000	0.00000000000000	0.00000000000000	0.00000000000000	0.00000000000000	18.16794700000000	0.00000000000000	0.00000000000000	0.00000000000000	0.00000000000000	
17.15493100000000	14.37470000000000	718.07367199999999	40.48826000000000	0.23915500000000	0.00000000000000	0.09447200000000	0.00000000000000	0.00000000000000	0.00000000000000	0.00000000000000	0.00000000000000	0.00000000000000	0.00000000000000	18.22443400000000	0.00000000000000	0.00000000000000	0.00000000000000	0.00000000000000	
17.15660400000000	13.81561300000000	718.89176599999996	40.48820000000000	0.23814800000000	0.00000000000000	0.09440000000000	0.00000000000000	0.00000000000000	0.00000000000000	0.00000000000000	0.00000000000000	0.00000000000000	0.00000000000000	18.28500800000000	0.00000000000000	0.00000000000000	0.00000000000000	0.00000000000000	
17.15826800000000	13.24450600000000	719.70816600000001	40.49557300000000	0.23711500000000	0.00000000000000	0.09433100000000	0.00000000000000	0.00000000000000	0.00000000000000	0.00000000000000	0.00000000000000	0.00000000000000	0.00000000000000	18.34960200000000	0.00000000000000	0.00000000000000	0.00000000000000	0.00000000000000	
17.15993600000000	12.66162100000000	720.52235199999996	40.51026100000000	0.23605800000000	0.00000000000000	0.09426500000000	0.00000000000000	0.00000000000000	0.00000000000000	0.00000000000000	0.00000000000000	0.00000000000000	0.00000000000000	18.41814100000000	0.00000000000000	0.00000000000000	0.00000000000000	0.00000000000000	
17.16159500000000	12.06723900000000	721.33391600000004	40.53213300000000	0.23497800000000	0.00000000000000	0.09420100000000	0.00000000000000	0.00000000000000	0.00000000000000	0.00000000000000	0.00000000000000	0.00000000000000	0.00000000000000	18.49054200000000	0.00000000000000	0.00000000000000	0.00000000000000	0.00000000000000	
17.16326300000000	11.46167200000000	722.14255900000001	40.56104200000000	0.23387600000000	0.00000000000000	0.09413900000000	0.00000000000000	0.00000000000000	0.00000000000000	0.00000000000000	0.00000000000000	0.00000000000000	0.00000000000000	18.56671700000000	0.00000000000000	0.00000000000000	0.00000000000000	0.00000000000000	
17.16493700000000	10.84526700000000	722.94808799999998	40.59682700000000	0.23275400000000	0.00000000000000	0.09408000000000	0.00000000000000	0.00000000000000	0.00000000000000	0.00000000000000	0.00000000000000	0.00000000000000	0.00000000000000	18.64656800000000	0.00000000000000	0.00000000000000	0.00000000000000	0.00000000000000	
17.16661000000000	10.21840100000000	723.75041699999997	40.63931100000000	0.23161400000000	0.00000000000000	0.09402400000000	0.00000000000000	0.00000000000000	0.00000000000000	0.00000000000000	0.00000000000000	0.00000000000000	0.00000000000000	18.72999200000000	0.00000000000000	0.00000000000000	0.00000000000000	0.00000000000000	
17.16826400000000	9.58148400000000	724.54956300000003	40.68830800000000	0.23045600000000	0.00000000000000	0.09396900000000	0.00000000000000	0.00000000000000	0.00000000000000	0.00000000000000	0.00000000000000	0.00000000000000	0.00000000000000	18.81687700000000	0.00000000000000	0.00000000000000	0.00000000000000	0.00000000000000	
17.16993100000000	8.93495200000000	725.34564300000000	40.74361700000000	0.22928400000000	0.00000000000000	0.09391700000000	0.00000000000000	0.00000000000000	0.00000000000000	0.00000000000000	0.00000000000000	0.00000000000000	0.00000000000000	18.90710700000000	0.00000000000000	0.00000000000000	0.00000000000000	0.00000000000000	
17.17160300000000	8.27926900000000	726.13886800000000	40.80502800000000	0.22809800000000	0.00000000000000	0.09386600000000	0.00000000000000	0.00000000000000	0.00000000000000	0.00000000000000	0.00000000000000	0.00000000000000	0.00000000000000	19.00055800000000	0.00000000000000	0.00000000000000	0.00000000000000	0.00000000000000	
17.17327000000000	7.61492400000000	726.92954399999996	40.87232100000000	0.22690100000000	0.00000000000000	0.09381700000000	0.00000000000000	0.00000000000000	0.00000000000000	0.00000000000000	0.00000000000000	0.00000000000000	0.00000000000000	19.09710000000000	0.00000000000000	0.00000000000000	0.00000000000000	0.00000000000000	
17.17493000000000	6.94243000000000	727.71806300000003	40.94526700000000	0.22569400000000	0.00000000000000	0.09377000000000	0.00000000000000	0.00000000000000	0.00000000000000	0.00000000000000	0.00000000000000	0.00000000000000	0.00000000000000	19.19659600000000	0.00000000000000	0.00000000000000	0.00000000000000	0.00000000000000	
17.17659900000000	6.26232000000000	728.50490100000002	41.02363000000000	0.22448000000000	0.00000000000000	0.09372500000000	0.00000000000000	0.00000000000000	0.00000000000000	0.00000000000000	0.00000000000000	0.00000000000000	0.00000000000000	19.29890700000000	0.00000000000000	0.00000000000000	0.00000000000000	0.00000000000000	
17.17826200000000	5.57514900000000	729.29061400000001	41.10716700000000	0.22326000000000	0.00000000000000	0.09368100000000	0.00000000000000	0.00000000000000	0.00000000000000	0.00000000000000	0.00000000000000	0.00000000000000	0.00000000000000	19.40388400000000	0.00000000000000	0.00000000000000	0.00000000000000	0.00000000000000	
17.17992900000000	4.88148700000000	730.07583000000000	41.19563200000000	0.22203500000000	0.00000000000000	0.09363800000000	0.00000000000000	0.00000000000000	0.00000000000000	0.00000000000000	0.00000000000000	0.00000000000000	0.00000000000000	19.51137600000000	0.00000000000000	0.00000000000000	0.00000000000000	0.00000000000000	
17.18160300000000	4.18192100000000	730.86124299999994	41.28877300000000	0.22080900000000	0.00000000000000	0.09359600000000	0.00000000000000	0.00000000000000	0.00000000000000	0.00000000000000	0.00000000000000	0.00000000000000	0.00000000000000	19.62122700000000	0.00000000000000	0.00000000000000	0.00000000000000	0.00000000000000	
17.18326700000000	3.47704900000000	731.64761299999998	41.38633700000000	0.21958300000000	0.00000000000000	0.09355500000000	0.00000000000000	0.00000000000000	0.00000000000000	0.00000000000000	0.00000000000000	0.00000000000000	0.00000000000000	19.73327400000000	0.00000000000000	0.00000000000000	0.00000000000000	0.00000000000000	
